<svg width="18" height="18" viewBox="0 0 18 18" fill="none" xmlns="http://www.w3.org/2000/svg">
<path d="M18 9C18 4.02944 13.9706 0 9 0C4.02944 0 0 4.02944 0 9C0 13.9706 4.02944 18 9 18C13.9706 18 18 13.9706 18 9Z" fill="#32A9C4"/>
<path d="M7.5276 13.125C7.31455 13.125 7.1013 13.0484 6.9388 12.895L3.99396 10.1179C3.66868 9.81111 3.66868 9.31386 3.99396 9.00706C4.31925 8.70031 4.84655 8.70031 5.17185 9.00706L7.5276 11.2287L12.8282 6.23006C13.1535 5.92336 13.6809 5.92326 14.0059 6.23006C14.3314 6.53681 14.3314 7.03421 14.0059 7.34086L8.11655 12.895C7.9539 13.0483 7.74075 13.125 7.5276 13.125Z" fill="white"/>
</svg>
