<svg width="225" height="225" viewBox="0 0 225 225" fill="none" xmlns="http://www.w3.org/2000/svg">
<path fill-rule="evenodd" clip-rule="evenodd" d="M192.05 32.9506C170.801 11.7018 142.55 0 112.5 0C90.9039 0 69.9244 6.13652 51.8286 17.7469C50.2967 18.7299 49.8515 20.7686 50.8346 22.3009C51.8177 23.8324 53.8558 24.2776 55.3886 23.295C72.4197 12.3675 92.1687 6.5918 112.5 6.5918C140.789 6.5918 167.385 17.608 187.388 37.6115C207.392 57.6149 218.408 84.2106 218.408 112.5C218.408 171.032 171.04 218.408 112.5 218.408C102.04 218.408 91.6941 216.881 81.7506 213.869C80.0081 213.341 78.1681 214.325 77.6408 216.068C77.113 217.81 78.0974 219.65 79.8394 220.178C90.4034 223.378 101.392 225 112.5 225C174.676 225 225 174.684 225 112.5C225 82.4502 213.298 54.1991 192.05 32.9506ZM200.632 105.659C200.771 107.475 199.412 109.059 197.597 109.198C195.775 109.339 194.198 107.977 194.059 106.163C192.49 85.6736 183.31 66.6514 168.209 52.6003C153.03 38.4768 133.246 30.6984 112.5 30.6984C67.3945 30.6984 30.6989 67.3941 30.6989 112.5C30.6989 157.605 67.3945 194.301 112.5 194.301C155.247 194.301 190.804 161.349 194.059 118.837C194.198 117.022 195.789 115.667 197.597 115.803C199.412 115.942 200.77 117.526 200.631 119.341C197.105 165.382 158.597 200.893 112.5 200.893C63.7603 200.893 24.1071 161.24 24.1071 112.5C24.1071 63.7594 63.7603 24.1066 112.5 24.1066C134.918 24.1066 156.297 32.5121 172.699 47.7743C189.016 62.9569 198.936 83.5141 200.632 105.659ZM115.796 50.2979C115.796 52.1181 114.32 53.5938 112.5 53.5938C110.68 53.5938 109.204 52.1181 109.204 50.2979V45.4604C109.204 43.6402 110.68 42.1645 112.5 42.1645C114.32 42.1645 115.796 43.6402 115.796 45.4604V50.2979ZM157.395 62.8402C158.682 61.5526 160.769 61.553 162.056 62.8402C163.343 64.1273 163.343 66.2143 162.056 67.5015L158.635 70.9222C157.992 71.5655 157.148 71.8872 156.305 71.8872C155.461 71.8872 154.618 71.5651 153.974 70.9217C152.687 69.6346 152.687 67.5476 153.974 66.2605L157.395 62.8402ZM174.343 109.205C172.523 109.205 171.047 110.68 171.047 112.501C171.047 114.321 172.523 115.797 174.343 115.797H179.181C181.001 115.797 182.477 114.321 182.477 112.501C182.477 110.68 181.001 109.205 179.181 109.205H174.343ZM153.72 153.974C155.007 152.687 157.094 152.687 158.381 153.974L161.802 157.394C163.089 158.681 163.089 160.768 161.802 162.055C161.158 162.699 160.314 163.02 159.471 163.02C158.628 163.02 157.784 162.699 157.14 162.055L153.72 158.635C152.433 157.348 152.433 155.261 153.72 153.974ZM108.845 174.344V179.182C108.845 181.003 110.321 182.478 112.141 182.478C113.961 182.478 115.437 181.003 115.437 179.182V174.344C115.437 172.524 113.962 171.049 112.141 171.049C110.32 171.049 108.845 172.524 108.845 174.344ZM62.5856 157.14L66.0063 153.72C67.2934 152.433 69.3804 152.433 70.6671 153.72C71.9543 155.007 71.9543 157.094 70.6671 158.381L67.2464 161.801C66.6031 162.445 65.7593 162.766 64.916 162.766C64.0727 162.766 63.2289 162.445 62.5856 161.801C61.2984 160.514 61.2984 158.427 62.5856 157.14ZM45.4605 108.846C43.6403 108.846 42.1646 110.321 42.1646 112.141C42.1646 113.962 43.6403 115.437 45.4605 115.437H50.298C52.1183 115.437 53.594 113.962 53.594 112.141C53.594 110.321 52.1183 108.846 50.298 108.846H45.4605ZM67.5009 62.5857L70.9216 66.0064C72.2083 67.2935 72.2088 69.38 70.9216 70.6672C70.2778 71.311 69.4341 71.6327 68.5908 71.6327C67.7475 71.6327 66.9041 71.311 66.2603 70.6672L62.8396 67.2469C61.5529 65.9598 61.5525 63.8728 62.8396 62.5857C64.1272 61.299 66.2133 61.2985 67.5009 62.5857ZM121.332 120.747L144.809 132.819C146.437 133.657 148.419 133.005 149.247 131.395C150.08 129.776 149.442 127.79 147.823 126.957L124.355 114.889C124.51 114.116 124.593 113.317 124.593 112.499C124.593 106.974 120.867 102.306 115.796 100.867V67.2722C115.796 65.452 114.321 63.9763 112.5 63.9763C110.68 63.9763 109.205 65.452 109.205 67.2722V100.867C105.183 102.008 102.009 105.182 100.868 109.203H84.5086C82.6884 109.203 81.2127 110.679 81.2127 112.499C81.2127 114.32 82.6884 115.795 84.5086 115.795H100.868C102.307 120.866 106.975 124.592 112.5 124.592C115.983 124.593 119.124 123.111 121.332 120.747ZM112.5 118.001C109.467 118.001 106.999 115.533 106.999 112.5C106.999 109.467 109.466 106.999 112.5 106.999C115.533 106.999 118.001 109.466 118.001 112.5C118.001 115.533 115.533 118.001 112.5 118.001ZM6.5918 112.501C6.5918 154.435 31.3893 192.48 69.7658 209.426C71.4309 210.162 72.1846 212.107 71.4494 213.773C70.9049 215.005 69.6981 215.738 68.4325 215.738C67.9878 215.738 67.5356 215.648 67.1027 215.457C26.3395 197.456 0 157.044 0 112.501C0 78.8403 14.8953 47.2221 40.8656 25.7526C42.2692 24.5933 44.3465 24.7906 45.5058 26.1929C46.666 27.5961 46.4687 29.6734 45.0659 30.8331C20.6152 51.0462 6.5918 80.8125 6.5918 112.501Z" fill="#EEECE2"/>
</svg>
