<svg width="303" height="303" viewBox="0 0 303 303" fill="none" xmlns="http://www.w3.org/2000/svg">
<g clip-path="url(#clip0)">
<path d="M225.041 96.2044L215.555 88.5082L211.137 99.9062C211.052 100.124 202.566 121.581 189.534 117.672C186.649 116.806 184.714 115.137 183.445 112.417C180.208 105.485 181.585 92.9366 186.952 80.4495C194.372 63.1828 191.123 45.09 177.555 28.1259C168.011 16.1937 156.544 8.97003 156.06 8.668L142.167 0L142.476 16.3737C142.482 16.6662 142.781 45.7562 121.242 56.4235C108.045 62.959 98.5986 73.7684 94.641 86.8607C90.9392 99.1085 92.4937 112.5 98.9066 123.601C101.532 128.145 102.327 131.999 101.272 135.056C99.7635 139.423 94.8909 141.672 93.4329 142.257C78.0346 148.441 67.9548 127.795 67.5473 126.942L60.5233 111.95L51.9157 126.093C40.8617 144.253 35.0197 165.152 35.0197 186.531C35.0197 250.285 86.5166 302.23 150.101 302.983C150.565 302.995 151.031 303.001 151.498 303.001H151.499H151.5C215.728 303.001 267.98 250.752 267.98 186.531C267.98 151.364 252.33 118.441 225.041 96.2044ZM115.071 248.809L115.07 248.7C114.983 241.629 116.33 234.047 119.082 226.081L140.976 232.48L141.197 220.863C141.535 203.071 151.568 192.148 159.59 186.239C161.647 195.189 164.854 203.168 169.282 210.406C174.332 218.645 179.114 225.63 183.525 231.943C186.358 236.007 187.965 242.143 187.934 248.776V248.819C187.934 258.545 184.143 267.691 177.262 274.573C170.386 281.448 161.237 285.235 151.499 285.235C151.497 285.235 151.497 285.235 151.496 285.235C131.418 285.233 115.078 268.899 115.071 248.809ZM200.392 272.253C203.859 265.036 205.697 257.079 205.699 248.837C205.745 238.485 203.046 228.876 198.093 221.773C193.173 214.732 188.967 208.525 184.433 201.127C179.377 192.865 176.337 183.128 175.14 171.36L173.969 159.858L163.157 163.952C162.143 164.336 152.984 167.948 143.596 176.464C133.64 185.495 127.213 196.663 124.665 209.203L108.786 204.562L105.652 211.711C99.9773 224.653 97.1691 237.152 97.3047 248.864C97.313 257.247 99.2353 265.19 102.656 272.28C72.8907 255.262 52.785 223.201 52.785 186.53C52.785 173.19 55.4665 160.074 60.6156 147.947C61.405 148.82 62.2448 149.692 63.1349 150.549C74.0159 161.023 87.1266 163.932 100.051 158.743C108.783 155.238 115.348 148.718 118.064 140.855C119.997 135.257 120.912 126.177 114.289 114.713C110.264 107.745 109.325 99.6788 111.646 92.0004C114.168 83.6575 120.376 76.6766 129.126 72.3429C147.541 63.2225 155.069 46.1009 158.139 33.1128C160.077 35.0185 162.068 37.177 163.939 39.5505C173.067 51.1233 175.317 62.5237 170.628 73.4355C163.129 90.8876 161.901 108.269 167.345 119.932C170.765 127.26 176.673 132.362 184.428 134.689C196.619 138.347 208.542 134.089 218.002 122.701C219.483 120.919 220.79 119.103 221.929 117.359C240.022 135.745 250.214 160.408 250.214 186.53C250.214 223.182 230.131 255.229 200.392 272.253Z" fill="#EEECE2"/>
</g>
<defs>
<clipPath id="clip0">
<rect width="303" height="303" fill="white"/>
</clipPath>
</defs>
</svg>
